<svg width="168" height="25" viewBox="0 0 168 25" fill="none" xmlns="http://www.w3.org/2000/svg">
<path fill-rule="evenodd" clip-rule="evenodd" d="M28.6933 25C34.7278 25 39.6784 20.0652 39.6784 14.0338C39.6784 10.8625 38.5799 8.1802 36.339 5.91286L33.9369 3.46769C31.8717 1.37819 29.0741 0 25.925 0C19.8612 0 14.9398 4.94961 14.9398 11.0848C14.9398 14.3154 16.2727 17.1014 18.3526 19.1761L20.3006 21.1322C23.0982 23.933 25.3831 25 28.6933 25ZM16.9465 24.6443H3.07585L0 21.5323V0.414938H4.99459L8.21691 3.51215V16.7457H13.8706L16.9465 19.8577V24.6443ZM5.15571 1.30409V16.7457H7.68962V3.74926L5.15571 1.30409ZM2.31421 19.4576V2.60818H2.8415V18.9538H11.8786V19.4576H2.31421ZM0.89346 21.6953L3.2809 24.1108H16.4192V20.0652L14.0317 17.6497V21.6953H0.89346ZM17.298 11.0848C17.298 16.0047 21.1208 19.917 25.925 19.917C30.7292 19.917 34.552 16.0047 34.552 11.0848C34.552 6.19443 30.7438 2.28216 25.925 2.28216C21.0622 2.32662 17.298 6.17961 17.298 11.0848ZM25.925 19.4132C30.4509 19.4132 34.0101 15.738 34.0101 11.0848C34.0101 6.44635 30.4509 2.78601 25.925 2.78601C21.3991 2.78601 17.8399 6.44635 17.8399 11.0848C17.8399 15.738 21.3991 19.4132 25.925 19.4132ZM20.1834 11.0699C20.2127 13.278 21.0769 15.0711 22.7613 16.1974C22.4537 15.4713 22.2779 14.6562 22.2779 13.5892C22.2779 9.92887 25.0316 7.03912 28.5468 7.03912C29.3377 7.03912 30.0115 7.21695 30.6413 7.54298C29.5721 5.98696 27.8731 5.09781 25.925 5.06817C22.7027 5.06817 20.1981 7.67635 20.1834 11.0699ZM28.6933 24.4665C25.5735 24.4665 23.23 23.4884 20.6375 20.7913C22.2486 21.6805 24.0502 22.1992 25.925 22.1992C31.9888 22.1992 36.9102 17.2199 36.9102 11.0848C36.8516 9.08417 36.4854 7.51334 35.5773 5.85359C38.0233 8.26912 39.1512 10.7439 39.1512 14.0338C39.1512 19.7688 34.4349 24.4665 28.6933 24.4665ZM23.6401 16.6716C24.3285 16.968 25.0901 17.131 25.925 17.131C29.1327 17.131 31.6666 14.4784 31.6666 11.0848C31.6666 10.1067 31.4762 9.21755 31.1247 8.43213C30.3777 7.83936 29.5574 7.57261 28.5468 7.57261C25.3245 7.57261 22.8052 10.1956 22.8052 13.5892C22.8052 14.997 23.0542 15.8862 23.6401 16.6716ZM54.6476 25C57.4305 25 60.9018 24.2294 62.6155 23.2365V12.2258L59.3932 9.12863H51.0298V13.5003L53.9445 16.3159L54.4865 16.3456V16.9087C53.842 17.0717 53.1097 17.1606 52.348 17.1606C51.147 17.1606 50.0631 16.9384 49.1404 16.5234C48.5252 15.7676 48.2323 14.8488 48.2323 13.604C48.2323 9.89923 50.854 7.39478 54.6769 7.39478C57.1229 7.39478 59.7447 8.41731 61.3266 9.49911V4.32721L58.28 1.24481C56.3466 0.37048 53.6955 0 51.8647 0C45.3908 0 40.4841 4.60877 40.4841 11.0996C40.4841 14.4339 41.7876 17.2644 43.9114 19.3539L46.2842 21.6953C48.4813 23.8589 51.2788 25 54.6476 25ZM45.7569 11.1885C45.7569 13.2928 46.6211 14.9526 48.2908 16.064C47.8954 15.3823 47.705 14.5969 47.705 13.5892C47.705 9.60285 50.5904 6.86129 54.6915 6.86129C56.7714 6.86129 58.9831 7.57261 60.7993 8.58032V4.53468L58.4118 2.11915V6.69828C57.1376 5.72021 54.7648 5.03853 52.5824 5.03853C48.4959 5.03853 45.7569 7.45406 45.7569 11.1885ZM51.7329 19.9318C46.5332 19.9318 42.8568 16.2567 42.8568 11.0848C42.8568 6.0166 46.6211 2.38589 51.8793 2.38589C53.2122 2.38589 55.0577 2.623 56.288 3.03794V3.58625C55.1163 3.14167 53.2415 2.88975 51.8793 2.88975C46.914 2.88975 43.3988 6.29816 43.3988 11.0848C43.3988 15.9899 46.8262 19.428 51.7329 19.428C53.2561 19.428 55.2335 19.0575 56.7567 18.4647V11.6479H53.1829V11.144H57.284V18.7908C55.7168 19.4724 53.4905 19.9318 51.7329 19.9318ZM46.0206 20.7469C48.5691 23.3551 51.103 24.4665 54.6476 24.4665C57.1962 24.4665 60.3745 23.7996 62.0882 22.9105V12.463L59.5543 10.0178V20.2727C57.8699 21.3693 54.4865 22.1992 51.6889 22.1992C49.7555 22.1992 47.7636 21.6805 46.0206 20.7469ZM54.4865 15.7973L54.1789 15.7825L51.9233 13.6633H54.4865V15.7973ZM88.9653 14.0338C88.9653 20.0652 84.0146 25 77.9801 25C74.6699 25 72.385 23.933 69.5874 21.1322L67.6394 19.1761C65.5596 17.1014 64.2267 14.3154 64.2267 11.0848C64.2267 4.94961 69.148 0 75.2119 0C78.3609 0 81.1585 1.37819 83.2237 3.46769L85.6258 5.91286C87.8668 8.1802 88.9653 10.8625 88.9653 14.0338ZM75.2119 19.917C70.4077 19.917 66.5848 16.0047 66.5848 11.0848C66.5848 6.17961 70.3491 2.32662 75.2119 2.28216C80.0307 2.28216 83.8389 6.19443 83.8389 11.0848C83.8389 16.0047 80.016 19.917 75.2119 19.917ZM83.2969 11.0848C83.2969 15.738 79.7377 19.4132 75.2119 19.4132C70.686 19.4132 67.1268 15.738 67.1268 11.0848C67.1268 6.44635 70.686 2.78601 75.2119 2.78601C79.7377 2.78601 83.2969 6.44635 83.2969 11.0848ZM72.0481 16.1974C70.3637 15.0711 69.4996 13.278 69.4703 11.0699C69.4849 7.67635 71.9895 5.06817 75.2119 5.06817C77.1599 5.09781 78.8589 5.98696 79.9282 7.54298C79.2983 7.21695 78.6246 7.03912 77.8336 7.03912C74.3184 7.03912 71.5648 9.92887 71.5648 13.5892C71.5648 14.6562 71.7405 15.4713 72.0481 16.1974ZM69.9243 20.7913C72.5168 23.4884 74.8603 24.4665 77.9801 24.4665C83.7217 24.4665 88.438 19.7688 88.438 14.0338C88.438 10.7439 87.3102 8.26912 84.8642 5.85359C85.7723 7.51334 86.1384 9.08417 86.197 11.0848C86.197 17.2199 81.2757 22.1992 75.2119 22.1992C73.3371 22.1992 71.5355 21.6805 69.9243 20.7913ZM75.2119 17.131C74.377 17.131 73.6153 16.968 72.9269 16.6716C72.3411 15.8862 72.0921 14.997 72.0921 13.5892C72.0921 10.1956 74.6113 7.57261 77.8336 7.57261C78.8443 7.57261 79.6645 7.83936 80.4115 8.43213C80.763 9.21755 80.9534 10.1067 80.9534 11.0848C80.9534 14.4784 78.4195 17.131 75.2119 17.131ZM101.078 24.6443H95.9372L92.8614 21.5323V8.28394H90.43L87.3541 5.1719V0.414938H103.363L106.439 3.52697V8.28394H101.078V24.6443ZM96.1423 24.1108L93.7548 21.6953H98.0171V5.33491H103.524V1.31891L105.912 3.73444V7.75044H100.551V24.1108H96.1423ZM95.1756 3.11203V19.5021H95.7029V3.11203H101.371V2.623H89.5072V3.11203H95.1756ZM90.6351 7.75044L88.2476 5.33491H92.8614V7.75044H90.6351ZM121.906 24.6443H116.765L113.689 21.5323V13.2039L105.502 0.414938H111.8L116.663 3.43806L117.776 5.3201L120.661 0.414938H126.681L128.907 3.3195L121.906 14.019V24.6443ZM116.97 24.1108L114.583 21.6953H118.845V13.2039L126.564 1.14108L128.263 3.34914L121.379 13.8708V24.1108H116.97ZM112.503 1.48192L116.267 7.869L117.468 5.83877L116.282 3.82336L112.503 1.48192ZM116.003 19.5021V12.626L109.779 2.60818H110.394L116.267 12.1517L122.17 2.60818H122.785L116.531 12.6556V19.5021H116.003ZM138.325 24.6443H133.184L130.108 21.5323V0.414938H138.399C140.874 0.414938 142.968 1.34855 144.418 2.81565L146.777 5.20154C148.256 6.69828 148.93 8.41731 148.93 10.6846C148.93 14.9822 145.268 18.361 140.581 18.361H138.325V24.6443ZM132.423 19.5021V2.51926H138.399C141.694 2.51926 143.964 4.63841 143.964 7.73563C143.964 11.0551 141.489 13.4707 138.106 13.4707H132.95V19.5021H132.423ZM138.106 12.9668H132.95V3.02312H138.399C141.401 3.02312 143.423 4.91998 143.423 7.73563C143.423 10.7736 141.182 12.9668 138.106 12.9668ZM133.389 24.1108L131.002 21.6953H135.264V15.5602H138.106C142.778 15.5602 146.293 12.211 146.308 7.76526C146.308 6.69828 146.118 5.74985 145.707 4.83106C147.773 6.80202 148.402 8.15056 148.402 10.6846C148.402 14.6858 144.99 17.8275 140.581 17.8275H137.798V24.1108H133.389ZM135.264 5.12745V10.8773H137.505V7.39478H141.035C140.786 6.06106 139.731 5.15708 138.34 5.12745H135.264ZM138.032 10.8773V7.92828H141.094V8.03201C141.094 9.61766 139.863 10.8773 138.281 10.8773H138.032ZM168 24.6443H153.69L150.614 21.5323V0.414938H164.514L167.59 3.52697V7.54298H158.626V8.44695H163.137L166.213 11.559V15.9899H158.626V16.8939H164.924L168 20.0059V24.6443ZM155.711 8.44695V5.15708H164.675V1.31891L167.063 3.73444V7.00948H158.099V8.44695H155.711ZM152.884 2.53408V19.5465H162.932V19.0427H153.412V11.1292H161.145V10.6254H153.412V3.03794H162.522V2.53408H152.884ZM155.711 16.8939V13.3076H163.298V9.35092L165.686 11.7664V15.4564H158.099V16.8939H155.711ZM151.508 21.6953L153.895 24.1108H167.473V20.2134L165.085 17.7979V21.6953H151.508Z" fill="black"/>
</svg>
